<svg width="758" height="119" viewBox="0 0 758 119" fill="none" xmlns="http://www.w3.org/2000/svg">
<g filter="url(#filter0_d_355_39)">
<rect x="4" width="750" height="111" rx="50" fill="#8200FF" shape-rendering="crispEdges"/>
<path d="M259.709 60.908C259.885 60.908 260.041 60.976 260.177 61.112L261.449 62.492C260.745 63.364 259.877 64.032 258.845 64.496C257.821 64.96 256.589 65.192 255.149 65.192C253.861 65.192 252.701 64.972 251.669 64.532C250.645 64.092 249.769 63.48 249.041 62.696C248.313 61.912 247.753 60.976 247.361 59.888C246.977 58.8 246.785 57.612 246.785 56.324C246.785 55.02 246.993 53.828 247.409 52.748C247.825 51.66 248.409 50.724 249.161 49.94C249.921 49.156 250.825 48.548 251.873 48.116C252.921 47.676 254.081 47.456 255.353 47.456C256.617 47.456 257.737 47.664 258.713 48.08C259.697 48.496 260.533 49.04 261.221 49.712L260.141 51.212C260.077 51.308 259.993 51.392 259.889 51.464C259.793 51.536 259.657 51.572 259.481 51.572C259.361 51.572 259.237 51.54 259.109 51.476C258.981 51.404 258.841 51.32 258.689 51.224C258.537 51.12 258.361 51.008 258.161 50.888C257.961 50.768 257.729 50.66 257.465 50.564C257.201 50.46 256.893 50.376 256.541 50.312C256.197 50.24 255.797 50.204 255.341 50.204C254.565 50.204 253.853 50.344 253.205 50.624C252.565 50.896 252.013 51.296 251.549 51.824C251.085 52.344 250.725 52.984 250.469 53.744C250.213 54.496 250.085 55.356 250.085 56.324C250.085 57.3 250.221 58.168 250.493 58.928C250.773 59.688 251.149 60.328 251.621 60.848C252.093 61.368 252.649 61.768 253.289 62.048C253.929 62.32 254.617 62.456 255.353 62.456C255.793 62.456 256.189 62.432 256.541 62.384C256.901 62.336 257.229 62.26 257.525 62.156C257.829 62.052 258.113 61.92 258.377 61.76C258.649 61.592 258.917 61.388 259.181 61.148C259.261 61.076 259.345 61.02 259.433 60.98C259.521 60.932 259.613 60.908 259.709 60.908ZM279.833 56.324C279.833 57.596 279.621 58.776 279.197 59.864C278.781 60.944 278.189 61.88 277.421 62.672C276.653 63.464 275.729 64.084 274.649 64.532C273.569 64.972 272.369 65.192 271.049 65.192C269.737 65.192 268.541 64.972 267.461 64.532C266.381 64.084 265.453 63.464 264.677 62.672C263.909 61.88 263.313 60.944 262.889 59.864C262.465 58.776 262.253 57.596 262.253 56.324C262.253 55.052 262.465 53.876 262.889 52.796C263.313 51.708 263.909 50.768 264.677 49.976C265.453 49.184 266.381 48.568 267.461 48.128C268.541 47.68 269.737 47.456 271.049 47.456C271.929 47.456 272.757 47.56 273.533 47.768C274.309 47.968 275.021 48.256 275.669 48.632C276.317 49 276.897 49.452 277.409 49.988C277.929 50.516 278.369 51.108 278.729 51.764C279.089 52.42 279.361 53.132 279.545 53.9C279.737 54.668 279.833 55.476 279.833 56.324ZM276.533 56.324C276.533 55.372 276.405 54.52 276.149 53.768C275.893 53.008 275.529 52.364 275.057 51.836C274.585 51.308 274.009 50.904 273.329 50.624C272.657 50.344 271.897 50.204 271.049 50.204C270.201 50.204 269.437 50.344 268.757 50.624C268.085 50.904 267.509 51.308 267.029 51.836C266.557 52.364 266.193 53.008 265.937 53.768C265.681 54.52 265.553 55.372 265.553 56.324C265.553 57.276 265.681 58.132 265.937 58.892C266.193 59.644 266.557 60.284 267.029 60.812C267.509 61.332 268.085 61.732 268.757 62.012C269.437 62.292 270.201 62.432 271.049 62.432C271.897 62.432 272.657 62.292 273.329 62.012C274.009 61.732 274.585 61.332 275.057 60.812C275.529 60.284 275.893 59.644 276.149 58.892C276.405 58.132 276.533 57.276 276.533 56.324ZM297.296 47.648V65H295.64C295.384 65 295.168 64.96 294.992 64.88C294.824 64.792 294.66 64.648 294.5 64.448L285.44 52.88C285.488 53.408 285.512 53.896 285.512 54.344V65H282.668V47.648H284.36C284.496 47.648 284.612 47.656 284.708 47.672C284.812 47.68 284.9 47.704 284.972 47.744C285.052 47.776 285.128 47.828 285.2 47.9C285.272 47.964 285.352 48.052 285.44 48.164L294.536 59.78C294.512 59.5 294.492 59.224 294.476 58.952C294.46 58.68 294.452 58.428 294.452 58.196V47.648H297.296ZM315.788 47.648V65H314.132C313.876 65 313.66 64.96 313.484 64.88C313.316 64.792 313.152 64.648 312.992 64.448L303.932 52.88C303.98 53.408 304.004 53.896 304.004 54.344V65H301.16V47.648H302.852C302.988 47.648 303.104 47.656 303.2 47.672C303.304 47.68 303.392 47.704 303.464 47.744C303.544 47.776 303.62 47.828 303.692 47.9C303.764 47.964 303.844 48.052 303.932 48.164L313.028 59.78C313.004 59.5 312.984 59.224 312.968 58.952C312.952 58.68 312.944 58.428 312.944 58.196V47.648H315.788ZM322.892 50.216V55.028H328.964V57.512H322.892V62.42H330.596V65H319.652V47.648H330.596V50.216H322.892ZM344.998 60.908C345.174 60.908 345.33 60.976 345.466 61.112L346.738 62.492C346.034 63.364 345.166 64.032 344.134 64.496C343.11 64.96 341.878 65.192 340.438 65.192C339.15 65.192 337.99 64.972 336.958 64.532C335.934 64.092 335.058 63.48 334.33 62.696C333.602 61.912 333.042 60.976 332.65 59.888C332.266 58.8 332.074 57.612 332.074 56.324C332.074 55.02 332.282 53.828 332.698 52.748C333.114 51.66 333.698 50.724 334.45 49.94C335.21 49.156 336.114 48.548 337.162 48.116C338.21 47.676 339.37 47.456 340.642 47.456C341.906 47.456 343.026 47.664 344.002 48.08C344.986 48.496 345.822 49.04 346.51 49.712L345.43 51.212C345.366 51.308 345.282 51.392 345.178 51.464C345.082 51.536 344.946 51.572 344.77 51.572C344.65 51.572 344.526 51.54 344.398 51.476C344.27 51.404 344.13 51.32 343.978 51.224C343.826 51.12 343.65 51.008 343.45 50.888C343.25 50.768 343.018 50.66 342.754 50.564C342.49 50.46 342.182 50.376 341.83 50.312C341.486 50.24 341.086 50.204 340.63 50.204C339.854 50.204 339.142 50.344 338.494 50.624C337.854 50.896 337.302 51.296 336.838 51.824C336.374 52.344 336.014 52.984 335.758 53.744C335.502 54.496 335.374 55.356 335.374 56.324C335.374 57.3 335.51 58.168 335.782 58.928C336.062 59.688 336.438 60.328 336.91 60.848C337.382 61.368 337.938 61.768 338.578 62.048C339.218 62.32 339.906 62.456 340.642 62.456C341.082 62.456 341.478 62.432 341.83 62.384C342.19 62.336 342.518 62.26 342.814 62.156C343.118 62.052 343.402 61.92 343.666 61.76C343.938 61.592 344.206 61.388 344.47 61.148C344.55 61.076 344.634 61.02 344.722 60.98C344.81 60.932 344.902 60.908 344.998 60.908ZM361.069 50.3H355.837V65H352.609V50.3H347.377V47.648H361.069V50.3ZM391.373 47.648L385.985 65H383.069L379.277 53.144C379.173 52.856 379.077 52.504 378.989 52.088C378.941 52.288 378.893 52.476 378.845 52.652C378.797 52.828 378.745 52.992 378.689 53.144L374.861 65H371.933L366.557 47.648H369.257C369.537 47.648 369.769 47.716 369.953 47.852C370.145 47.98 370.273 48.156 370.337 48.38L373.289 58.76C373.353 59.016 373.413 59.296 373.469 59.6C373.533 59.896 373.597 60.208 373.661 60.536C373.725 60.2 373.793 59.884 373.865 59.588C373.945 59.292 374.029 59.016 374.117 58.76L377.525 48.38C377.589 48.196 377.713 48.028 377.897 47.876C378.089 47.724 378.321 47.648 378.593 47.648H379.541C379.821 47.648 380.049 47.716 380.225 47.852C380.401 47.988 380.533 48.164 380.621 48.38L384.017 58.76C384.185 59.256 384.337 59.828 384.473 60.476C384.577 59.844 384.693 59.272 384.821 58.76L387.773 48.38C387.821 48.18 387.941 48.008 388.133 47.864C388.333 47.72 388.569 47.648 388.841 47.648H391.373ZM401.523 58.448L399.411 52.676C399.307 52.42 399.199 52.116 399.087 51.764C398.975 51.412 398.863 51.032 398.751 50.624C398.647 51.032 398.539 51.416 398.427 51.776C398.315 52.128 398.207 52.436 398.103 52.7L396.003 58.448H401.523ZM407.223 65H404.727C404.447 65 404.219 64.932 404.043 64.796C403.867 64.652 403.735 64.476 403.647 64.268L402.351 60.728H395.163L393.867 64.268C393.803 64.452 393.679 64.62 393.495 64.772C393.311 64.924 393.083 65 392.811 65H390.291L397.119 47.648H400.407L407.223 65ZM419.183 62.336V65H409.019V47.648H412.247V62.336H419.183ZM431.652 62.336V65H421.488V47.648H424.716V62.336H431.652ZM437.197 50.216V55.028H443.269V57.512H437.197V62.42H444.901V65H433.957V47.648H444.901V50.216H437.197ZM459.882 50.3H454.65V65H451.422V50.3H446.19V47.648H459.882V50.3Z" fill="white"/>
<path fill-rule="evenodd" clip-rule="evenodd" d="M500.145 36.327C506.759 36.327 512.139 41.707 512.139 48.323V62.677C512.139 69.291 506.759 74.673 500.145 74.673H482.857C476.243 74.673 470.861 69.291 470.861 62.677V48.323C470.861 41.707 476.243 36.327 482.857 36.327H500.145ZM500.145 39.327H482.857C477.897 39.327 473.861 43.363 473.861 48.323V62.677C473.861 67.637 477.897 71.673 482.857 71.673H500.145C505.105 71.673 509.139 67.637 509.139 62.677V62.117L502.543 62.1182C498.749 62.1182 495.661 59.0322 495.659 55.2402C495.659 51.4442 498.747 48.3562 502.543 48.3542L509.139 48.353V48.323C509.139 43.363 505.105 39.327 500.145 39.327ZM509.139 51.353L502.543 51.3542C500.401 51.3562 498.659 53.0982 498.659 55.2382C498.659 57.3762 500.403 59.1182 502.543 59.1182L509.139 59.117V51.353ZM503.458 53.6142C504.286 53.6142 504.958 54.2862 504.958 55.1142C504.958 55.9422 504.286 56.6142 503.458 56.6142H502.834C502.006 56.6142 501.334 55.9422 501.334 55.1142C501.334 54.2862 502.006 53.6142 502.834 53.6142H503.458ZM492.231 45.4032C493.059 45.4032 493.731 46.0752 493.731 46.9032C493.731 47.7312 493.059 48.4032 492.231 48.4032H481.433C480.605 48.4032 479.933 47.7312 479.933 46.9032C479.933 46.0752 480.605 45.4032 481.433 45.4032H492.231Z" fill="#A8FEDA"/>
</g>
<defs>
<filter id="filter0_d_355_39" x="0" y="0" width="758" height="119" filterUnits="userSpaceOnUse" color-interpolation-filters="sRGB">
<feFlood flood-opacity="0" result="BackgroundImageFix"/>
<feColorMatrix in="SourceAlpha" type="matrix" values="0 0 0 0 0 0 0 0 0 0 0 0 0 0 0 0 0 0 127 0" result="hardAlpha"/>
<feOffset dy="4"/>
<feGaussianBlur stdDeviation="2"/>
<feComposite in2="hardAlpha" operator="out"/>
<feColorMatrix type="matrix" values="0 0 0 0 0 0 0 0 0 0 0 0 0 0 0 0 0 0 0.25 0"/>
<feBlend mode="normal" in2="BackgroundImageFix" result="effect1_dropShadow_355_39"/>
<feBlend mode="normal" in="SourceGraphic" in2="effect1_dropShadow_355_39" result="shape"/>
</filter>
</defs>
</svg>
